:SAMPLES-PER-SECOND 30
:FRAME-RANGE 1-1700
:FULLY-SPECIFIED
:DEGREES
160
root  35.5013 38.5133 -41.8439 0.47175 -58.8881 -3.27166
RightUpLeg  -11.9104 -1.80809 10.5857
RightLeg  27.2917 -9.69884 -5.62553
RightFoot  -13.8203 -0.171794 -3.6226
RightToes  -1.16417e-010 0 -3.6325e-017
Spine  24.9096 0.245919 -1.11892
Spine1  5.30623 -4.52474 4.35613
HEad  -27.7933 1.92172 -2.69133
LeftShoulder1  3.31855 -6.85445 -25.9109
LeftArm  83.4118 -35.9232 -96.6341
LeftForeArm  -8.72691 -16.1073 -13.3759
LeftHand  -0.0464717 3.40409 1.71332
RightShoulder  13.316 27.9765 35.9927
RightArm  36.6099 13.7036 16.0575
RightForeArm  6.43405 33.2861 7.02798
RightHand  1.83692 3.92601 22.3091
LeftUpLeg  -97.1656 22.5099 -71.7161
LeftLeg  121.33 -0.355345 0.0248924
LeftFoot  17.4486 2.79107 -11.2684
LeftToes  1.03528e-008 1.55373e-010 -2.26046e-010
161
root  35.4735 38.8351 -41.7379 -0.298717 -58.6877 -2.29339
RightUpLeg  -10.2537 -2.85132 9.71199
RightLeg  23.9895 -8.98367 -4.57445
RightFoot  -12.6257 -0.127819 -3.79139
RightToes  -1.16417e-010 0 -3.6325e-017
Spine  24.3511 0.316072 -0.76869
Spine1  4.95131 -4.38831 4.19162
HEad  -27.3381 1.4172 -3.24562
LeftShoulder1  3.31651 -6.85776 -25.8797
LeftArm  82.249 -35.7913 -96.4339
LeftForeArm  -8.43917 -15.8384 -13.6066
LeftHand  -0.0391464 3.37771 1.25528
RightShoulder  13.0407 28.0294 35.0649
RightArm  36.0761 13.1507 15.8467
RightForeArm  4.31916 35.3346 7.71399
RightHand  2.03953 3.98515 24.5672
LeftUpLeg  -97.8981 22.4017 -71.887
LeftLeg  121.427 -0.55499 0.327036
LeftFoot  16.7316 2.7262 -11.2912
LeftToes  1.03528e-008 1.55373e-010 -2.26046e-010
162
root  35.367 39.0033 -41.6594 -0.491829 -58.519 -1.92874
RightUpLeg  -9.15792 -3.89588 9.22153
RightLeg  21.9353 -8.32298 -3.64653
RightFoot  -12.1219 -0.108697 -3.93252
RightToes  -1.16417e-010 0 -3.6325e-017
Spine  23.8301 0.476799 -0.435137
Spine1  4.41956 -4.45648 4.29549
HEad  -26.9192 1.17975 -3.89631
LeftShoulder1  3.32857 -6.88113 -25.9257
LeftArm  81.2301 -36.0618 -96.3717
LeftForeArm  -8.35622 -15.5659 -13.8464
LeftHand  -0.0338885 3.53467 0.965678
RightShoulder  12.7817 28.1398 34.1115
RightArm  35.4205 13.1895 15.8275
RightForeArm  2.95976 37.3123 8.37237
RightHand  2.18712 3.64314 27.2911
LeftUpLeg  -98.7285 22.5381 -71.7898
LeftLeg  121.659 -1.25906 1.3813
LeftFoot  14.8507 2.56221 -11.3793
LeftToes  1.03528e-008 1.55373e-010 -2.26046e-010
163
root  35.3768 39.1012 -41.5636 -0.492451 -58.3542 -1.62506
RightUpLeg  -8.79293 -4.23897 8.71118
RightLeg  20.7699 -8.23744 -3.05485
RightFoot  -11.7354 -0.0937995 -4.22231
RightToes  -1.16417e-010 0 -3.6325e-017
Spine  23.5591 0.383122 -0.127492
Spine1  3.95921 -4.6343 4.44713
HEad  -26.6423 1.22526 -4.54181
LeftShoulder1  3.35104 -6.99564 -25.7848
LeftArm  77.8189 -36.5456 -96.436
LeftForeArm  -5.90249 -14.6309 -14.5038
LeftHand  -0.032615 3.71516 0.911688
RightShoulder  12.7486 28.5947 33.4255
RightArm  35.5189 13.6651 16.1761
RightForeArm  2.95689 38.4207 8.71202
RightHand  2.22717 3.32801 28.7676
LeftUpLeg  -99.2552 22.3773 -71.6817
LeftLeg  121.188 -2.05871 2.63171
LeftFoot  12.967 1.99745 -9.62827
LeftToes  1.03528e-008 1.55373e-010 -2.26046e-010
164
root  35.4176 39.1213 -41.4885 -0.162704 -58.2358 -1.53555
RightUpLeg  -9.10955 -4.21362 8.48746
RightLeg  20.5302 -8.46567 -2.91697
RightFoot  -11.6785 -0.0916507 -4.33661
RightToes  -1.16417e-010 0 -3.6325e-017
Spine  23.3838 0.242566 0.1615
Spine1  3.6231 -4.85769 4.68071
HEad  -26.5219 1.36528 -5.16311
LeftShoulder1  3.39488 -7.02885 -26.1133
LeftArm  76.4764 -37.1342 -96.0603
LeftForeArm  -5.24216 -14.2688 -14.7577
LeftHand  -0.0321911 3.87448 0.909742
RightShoulder  12.9755 29.352 33.175
RightArm  35.7978 14.4964 16.8454
RightForeArm  3.6312 38.0747 8.56369
RightHand  2.29887 3.27834 29.8267
LeftUpLeg  -99.6621 22.6153 -71.6499
LeftLeg  120.742 -2.3705 3.16451
LeftFoot  10.7255 1.64734 -8.77362
LeftToes  1.03528e-008 1.55373e-010 -2.26046e-010
165
root  35.4937 39.1047 -41.4244 0.644442 -58.1909 -1.88948
RightUpLeg  -9.81361 -4.30394 8.53789
RightLeg  20.7128 -8.38367 -2.80841
RightFoot  -11.6013 -0.0886615 -4.54076
RightToes  -1.16417e-010 0 -3.6325e-017
Spine  23.4265 0.101903 0.62486
Spine1  3.37388 -4.99315 4.90871
HEad  -26.6937 1.50183 -5.57158
LeftShoulder1  3.42475 -7.04728 -26.349
LeftArm  73.4276 -37.6947 -95.8023
LeftForeArm  -2.84603 -13.4023 -15.2848
LeftHand  -0.0322379 4.11441 0.973775
RightShoulder  13.3341 30.0396 33.4077
RightArm  36.3519 15.4656 17.7024
RightForeArm  4.67846 37.0998 8.20503
RightHand  2.22955 2.97416 29.9964
LeftUpLeg  -100.12 23.1575 -71.4524
LeftLeg  120.293 -2.68389 3.71729
LeftFoot  9.5209 1.66958 -9.37058
LeftToes  1.03528e-008 1.55373e-010 -2.26046e-010
166
root  35.6183 39.0881 -41.3766 1.76599 -58.1843 -2.34558
RightUpLeg  -10.7887 -4.24175 8.61747
RightLeg  20.7679 -8.33525 -2.64421
RightFoot  -11.4295 -0.0807044 -4.56594
RightToes  -1.16417e-010 0 -3.6325e-017
Spine  23.5858 -0.0274095 1.00826
Spine1  3.28578 -5.07636 5.22413
HEad  -27.2666 1.75548 -5.67411
LeftShoulder1  3.45682 -7.06958 -26.5926
LeftArm  70.9926 -38.1927 -95.5003
LeftForeArm  -0.977171 -12.7028 -15.6782
LeftHand  -0.030363 4.21428 1.04867
RightShoulder  13.7264 30.6515 33.8172
RightArm  37.1287 16.143 18.7507
RightForeArm  6.43198 36.2673 7.85504
RightHand  2.08204 2.57757 29.461
LeftUpLeg  -100.445 23.7496 -71.2052
LeftLeg  119.829 -3.06088 4.39205
LeftFoot  8.89788 1.68355 -9.72057
LeftToes  1.03528e-008 1.55373e-010 -2.26046e-010
167
root  35.7927 39.0984 -41.3419 2.96993 -58.0106 -2.69531
RightUpLeg  -11.8997 -4.04231 8.59261
RightLeg  20.5594 -8.53139 -2.46818
RightFoot  -11.0367 -0.0625274 -4.51473
RightToes  -1.16417e-010 0 -3.6325e-017
Spine  23.9264 -0.206008 1.20056
Spine1  3.23081 -5.16381 5.57946
HEad  -27.853 1.82111 -5.45448
LeftShoulder1  3.47208 -7.08277 -26.6999
LeftArm  68.8827 -38.7261 -95.2712
LeftForeArm  0.717028 -12.0752 -16.004
LeftHand  -0.0313853 4.46027 0.913991
RightShoulder  14.1471 31.0303 34.5705
RightArm  37.6954 16.4755 19.5344
RightForeArm  10.2691 35.1408 7.30606
RightHand  1.94396 2.41652 28.1376
LeftUpLeg  -100.414 24.2586 -70.8277
LeftLeg  119.35 -3.36283 4.96992
LeftFoot  8.68643 1.61597 -9.43701
LeftToes  1.03528e-008 1.55373e-010 -2.26046e-010
